<?xml version="1.0" encoding="UTF-8"?>
<svg width="190px" height="29px" viewBox="0 0 190 29" version="1.1" xmlns="http://www.w3.org/2000/svg" xmlns:xlink="http://www.w3.org/1999/xlink">
    <!-- Generator: Sketch 52.2 (67145) - http://www.bohemiancoding.com/sketch -->
    <title>white-logo</title>
    <desc>Created with Sketch.</desc>
    <g id="Page-1" stroke="none" stroke-width="1" fill="none" fill-rule="evenodd">
        <g id="white-logo" fill="#000000" fill-rule="nonzero">
            <path d="M16.728,14.784 C16.728,16.2560074 16.4720026,17.5093282 15.96,18.544 C15.4479974,19.5786718 14.7493378,20.4159968 13.864,21.056 C12.9786622,21.6960032 11.9440059,22.1653318 10.76,22.464 C9.5759941,22.7626682 8.3013402,22.912 6.936,22.912 L6.936,28 L0.12,28 L0.12,6.656 L6.936,6.656 C8.3013402,6.656 9.5759941,6.8053318 10.76,7.104 C11.9440059,7.4026682 12.9786622,7.8719968 13.864,8.512 C14.7493378,9.1520032 15.4479974,9.9893282 15.96,11.024 C16.4720026,12.0586718 16.728,13.3119926 16.728,14.784 Z M6.936,17.152 L7.224,17.152 C8.1200045,17.152 8.7653314,16.9440021 9.16,16.528 C9.5546686,16.1119979 9.752,15.5306704 9.752,14.784 C9.752,14.0373296 9.5546686,13.4560021 9.16,13.04 C8.7653314,12.6239979 8.1200045,12.416 7.224,12.416 L6.936,12.416 L6.936,17.152 Z M24.664,6.656 L29.784,6.656 L37.88,28 L31.16,28 L30.456,26.08 L23.992,26.08 L23.288,28 L16.568,28 L24.664,6.656 Z M28.664,21.376 L27.224,17.632 L25.784,21.376 L28.664,21.376 Z M25.72,5.408 L28.376,0.448 L33.08,0.448 L29.24,5.408 L25.72,5.408 Z M37.24,22.88 L39.576,22.88 C40.2586701,22.88 40.7173322,22.7520013 40.952,22.496 C41.1866678,22.2399987 41.304,21.8773357 41.304,21.408 L41.304,6.656 L48.344,6.656 L48.344,22.592 C48.344,24.5760099 47.8906712,25.9733293 46.984,26.784 C46.0773288,27.5946707 44.6320099,28 42.648,28 L37.24,28 L37.24,22.88 Z M56.344,6.656 L61.464,6.656 L69.56,28 L62.84,28 L62.136,26.08 L55.672,26.08 L54.968,28 L48.248,28 L56.344,6.656 Z M60.344,21.376 L58.904,17.632 L57.464,21.376 L60.344,21.376 Z M70.04,6.656 L77.4,6.656 C78.76534,6.656 80.029328,6.8373315 81.192,7.2 C82.354672,7.5626685 83.362662,8.0959965 84.216,8.8 C85.069338,9.5040035 85.735998,10.3733282 86.216,11.408 C86.696002,12.4426718 86.936,13.6319933 86.936,14.976 C86.936,16.042672 86.786668,16.9493296 86.488,17.696 C86.189332,18.4426704 85.858668,19.0613309 85.496,19.552 C85.069331,20.1066694 84.589336,20.5759981 84.056,20.96 L88.056,28 L80.056,28 L76.856,22.592 L76.856,28 L70.04,28 L70.04,6.656 Z M76.856,17.152 L77.208,17.152 C78.018671,17.152 78.706664,16.9706685 79.272,16.608 C79.837336,16.2453315 80.12,15.6373376 80.12,14.784 C80.12,13.9306624 79.837336,13.3226685 79.272,12.96 C78.706664,12.5973315 78.018671,12.416 77.208,12.416 L76.856,12.416 L76.856,17.152 Z M88.056,17.344 C88.056,15.8079923 88.34933,14.3573402 88.936,12.992 C89.52267,11.6266598 90.322662,10.4373384 91.336,9.424 C92.349338,8.4106616 93.53866,7.6106696 94.904,7.024 C96.26934,6.4373304 97.719992,6.144 99.256,6.144 C100.792008,6.144 102.24266,6.4373304 103.608,7.024 C104.97334,7.6106696 106.162662,8.4106616 107.176,9.424 C108.189338,10.4373384 108.98933,11.6266598 109.576,12.992 C110.16267,14.3573402 110.456,15.8079923 110.456,17.344 C110.456,18.8800077 110.16267,20.3306598 109.576,21.696 C108.98933,23.0613402 108.189338,24.2506616 107.176,25.264 C106.162662,26.2773384 104.97334,27.0773304 103.608,27.664 C102.24266,28.2506696 100.792008,28.544 99.256,28.544 C97.719992,28.544 96.26934,28.2506696 94.904,27.664 C93.53866,27.0773304 92.349338,26.2773384 91.336,25.264 C90.322662,24.2506616 89.52267,23.0613402 88.936,21.696 C88.34933,20.3306598 88.056,18.8800077 88.056,17.344 Z M94.776,17.344 C94.776,17.9626698 94.893332,18.5439973 95.128,19.088 C95.362668,19.6320027 95.682665,20.1066646 96.088,20.512 C96.493335,20.9173354 96.967997,21.2373322 97.512,21.472 C98.056003,21.7066678 98.63733,21.824 99.256,21.824 C99.87467,21.824 100.455997,21.7066678 101,21.472 C101.544003,21.2373322 102.018665,20.9173354 102.424,20.512 C102.829335,20.1066646 103.149332,19.6320027 103.384,19.088 C103.618668,18.5439973 103.736,17.9626698 103.736,17.344 C103.736,16.7253302 103.618668,16.1440027 103.384,15.6 C103.149332,15.0559973 102.829335,14.5813354 102.424,14.176 C102.018665,13.7706646 101.544003,13.4506678 101,13.216 C100.455997,12.9813322 99.87467,12.864 99.256,12.864 C98.63733,12.864 98.056003,12.9813322 97.512,13.216 C96.967997,13.4506678 96.493335,13.7706646 96.088,14.176 C95.682665,14.5813354 95.362668,15.0559973 95.128,15.6 C94.893332,16.1440027 94.776,16.7253302 94.776,17.344 Z M124.952,6.656 L130.072,6.656 L138.168,28 L131.448,28 L130.744,26.08 L124.28,26.08 L123.576,28 L116.856,28 L124.952,6.656 Z M128.952,21.376 L127.512,17.632 L126.072,21.376 L128.952,21.376 Z M145.912,12.256 L140.024,12.256 L142.2,6.656 L155.864,6.656 L148.44,22.4 L155.448,22.4 L153.304,28 L138.488,28 L145.912,12.256 Z M165.24,28.544 C163.895993,28.544 162.680005,28.373335 161.592,28.032 C160.503995,27.690665 159.576004,27.1786701 158.808,26.496 C158.039996,25.8133299 157.448002,24.9493386 157.032,23.904 C156.615998,22.8586614 156.408,21.632007 156.408,20.224 L156.408,6.656 L163.224,6.656 L163.224,19.936 C163.224,20.6826704 163.378665,21.2533314 163.688,21.648 C163.997335,22.0426686 164.514663,22.24 165.24,22.24 C165.965337,22.24 166.482665,22.0426686 166.792,21.648 C167.101335,21.2533314 167.256,20.6826704 167.256,19.936 L167.256,6.656 L174.104,6.656 L174.104,20.224 C174.104,21.632007 173.896002,22.8586614 173.48,23.904 C173.063998,24.9493386 172.466671,25.8133299 171.688,26.496 C170.909329,27.1786701 169.976005,27.690665 168.888,28.032 C167.799995,28.373335 166.584007,28.544 165.24,28.544 Z M176.248,6.656 L183.352,6.656 L183.352,22.4 L189.24,22.4 L189.24,28 L176.248,28 L176.248,6.656 Z"></path>
        </g>
    </g>
</svg>