<?xml version="1.0" encoding="UTF-8"?>
<svg width="190px" height="29px" viewBox="0 0 190 29" version="1.1" xmlns="http://www.w3.org/2000/svg" xmlns:xlink="http://www.w3.org/1999/xlink">
    <!-- Generator: Sketch 52.1 (67048) - http://www.bohemiancoding.com/sketch -->
    <title>white-logo</title>
    <desc>Created with Sketch.</desc>
    <g id="Page-2" stroke="none" stroke-width="1" fill="none" fill-rule="evenodd">
        <g id="Page"></g>
        <g id="Artboard" transform="translate(-50.000000, -36.000000)" fill="#FFFFFF">
            <path d="M66.728,50.784 C66.728,52.2560074 66.4720026,53.5093282 65.96,54.544 C65.4479974,55.5786718 64.7493378,56.4159968 63.864,57.056 C62.9786622,57.6960032 61.9440059,58.1653318 60.76,58.464 C59.5759941,58.7626682 58.3013402,58.912 56.936,58.912 L56.936,64 L50.12,64 L50.12,42.656 L56.936,42.656 C58.3013402,42.656 59.5759941,42.8053318 60.76,43.104 C61.9440059,43.4026682 62.9786622,43.8719968 63.864,44.512 C64.7493378,45.1520032 65.4479974,45.9893282 65.96,47.024 C66.4720026,48.0586718 66.728,49.3119926 66.728,50.784 Z M56.936,53.152 L57.224,53.152 C58.1200045,53.152 58.7653314,52.9440021 59.16,52.528 C59.5546686,52.1119979 59.752,51.5306704 59.752,50.784 C59.752,50.0373296 59.5546686,49.4560021 59.16,49.04 C58.7653314,48.6239979 58.1200045,48.416 57.224,48.416 L56.936,48.416 L56.936,53.152 Z M74.664,42.656 L79.784,42.656 L87.88,64 L81.16,64 L80.456,62.08 L73.992,62.08 L73.288,64 L66.568,64 L74.664,42.656 Z M78.664,57.376 L77.224,53.632 L75.784,57.376 L78.664,57.376 Z M75.72,41.408 L78.376,36.448 L83.08,36.448 L79.24,41.408 L75.72,41.408 Z M87.24,58.88 L89.576,58.88 C90.2586701,58.88 90.7173322,58.7520013 90.952,58.496 C91.1866678,58.2399987 91.304,57.8773357 91.304,57.408 L91.304,42.656 L98.344,42.656 L98.344,58.592 C98.344,60.5760099 97.8906712,61.9733293 96.984,62.784 C96.0773288,63.5946707 94.6320099,64 92.648,64 L87.24,64 L87.24,58.88 Z M106.344,42.656 L111.464,42.656 L119.56,64 L112.84,64 L112.136,62.08 L105.672,62.08 L104.968,64 L98.248,64 L106.344,42.656 Z M110.344,57.376 L108.904,53.632 L107.464,57.376 L110.344,57.376 Z M120.04,42.656 L127.4,42.656 C128.76534,42.656 130.029328,42.8373315 131.192,43.2 C132.354672,43.5626685 133.362662,44.0959965 134.216,44.8 C135.069338,45.5040035 135.735998,46.3733282 136.216,47.408 C136.696002,48.4426718 136.936,49.6319933 136.936,50.976 C136.936,52.042672 136.786668,52.9493296 136.488,53.696 C136.189332,54.4426704 135.858668,55.0613309 135.496,55.552 C135.069331,56.1066694 134.589336,56.5759981 134.056,56.96 L138.056,64 L130.056,64 L126.856,58.592 L126.856,64 L120.04,64 L120.04,42.656 Z M126.856,53.152 L127.208,53.152 C128.018671,53.152 128.706664,52.9706685 129.272,52.608 C129.837336,52.2453315 130.12,51.6373376 130.12,50.784 C130.12,49.9306624 129.837336,49.3226685 129.272,48.96 C128.706664,48.5973315 128.018671,48.416 127.208,48.416 L126.856,48.416 L126.856,53.152 Z M138.056,53.344 C138.056,51.8079923 138.34933,50.3573402 138.936,48.992 C139.52267,47.6266598 140.322662,46.4373384 141.336,45.424 C142.349338,44.4106616 143.53866,43.6106696 144.904,43.024 C146.26934,42.4373304 147.719992,42.144 149.256,42.144 C150.792008,42.144 152.24266,42.4373304 153.608,43.024 C154.97334,43.6106696 156.162662,44.4106616 157.176,45.424 C158.189338,46.4373384 158.98933,47.6266598 159.576,48.992 C160.16267,50.3573402 160.456,51.8079923 160.456,53.344 C160.456,54.8800077 160.16267,56.3306598 159.576,57.696 C158.98933,59.0613402 158.189338,60.2506616 157.176,61.264 C156.162662,62.2773384 154.97334,63.0773304 153.608,63.664 C152.24266,64.2506696 150.792008,64.544 149.256,64.544 C147.719992,64.544 146.26934,64.2506696 144.904,63.664 C143.53866,63.0773304 142.349338,62.2773384 141.336,61.264 C140.322662,60.2506616 139.52267,59.0613402 138.936,57.696 C138.34933,56.3306598 138.056,54.8800077 138.056,53.344 Z M144.776,53.344 C144.776,53.9626698 144.893332,54.5439973 145.128,55.088 C145.362668,55.6320027 145.682665,56.1066646 146.088,56.512 C146.493335,56.9173354 146.967997,57.2373322 147.512,57.472 C148.056003,57.7066678 148.63733,57.824 149.256,57.824 C149.87467,57.824 150.455997,57.7066678 151,57.472 C151.544003,57.2373322 152.018665,56.9173354 152.424,56.512 C152.829335,56.1066646 153.149332,55.6320027 153.384,55.088 C153.618668,54.5439973 153.736,53.9626698 153.736,53.344 C153.736,52.7253302 153.618668,52.1440027 153.384,51.6 C153.149332,51.0559973 152.829335,50.5813354 152.424,50.176 C152.018665,49.7706646 151.544003,49.4506678 151,49.216 C150.455997,48.9813322 149.87467,48.864 149.256,48.864 C148.63733,48.864 148.056003,48.9813322 147.512,49.216 C146.967997,49.4506678 146.493335,49.7706646 146.088,50.176 C145.682665,50.5813354 145.362668,51.0559973 145.128,51.6 C144.893332,52.1440027 144.776,52.7253302 144.776,53.344 Z M174.952,42.656 L180.072,42.656 L188.168,64 L181.448,64 L180.744,62.08 L174.28,62.08 L173.576,64 L166.856,64 L174.952,42.656 Z M178.952,57.376 L177.512,53.632 L176.072,57.376 L178.952,57.376 Z M195.912,48.256 L190.024,48.256 L192.2,42.656 L205.864,42.656 L198.44,58.4 L205.448,58.4 L203.304,64 L188.488,64 L195.912,48.256 Z M215.24,64.544 C213.895993,64.544 212.680005,64.373335 211.592,64.032 C210.503995,63.690665 209.576004,63.1786701 208.808,62.496 C208.039996,61.8133299 207.448002,60.9493386 207.032,59.904 C206.615998,58.8586614 206.408,57.632007 206.408,56.224 L206.408,42.656 L213.224,42.656 L213.224,55.936 C213.224,56.6826704 213.378665,57.2533314 213.688,57.648 C213.997335,58.0426686 214.514663,58.24 215.24,58.24 C215.965337,58.24 216.482665,58.0426686 216.792,57.648 C217.101335,57.2533314 217.256,56.6826704 217.256,55.936 L217.256,42.656 L224.104,42.656 L224.104,56.224 C224.104,57.632007 223.896002,58.8586614 223.48,59.904 C223.063998,60.9493386 222.466671,61.8133299 221.688,62.496 C220.909329,63.1786701 219.976005,63.690665 218.888,64.032 C217.799995,64.373335 216.584007,64.544 215.24,64.544 Z M226.248,42.656 L233.352,42.656 L233.352,58.4 L239.24,58.4 L239.24,64 L226.248,64 L226.248,42.656 Z" id="white-logo"></path>
        </g>
    </g>
</svg>